<?xml version="1.0" encoding="UTF-8" standalone="no"?>
<svg width="104px" height="109px" viewBox="0 0 104 109" version="1.1" xmlns="http://www.w3.org/2000/svg" xmlns:xlink="http://www.w3.org/1999/xlink">
    <!-- Generator: Sketch 41.1 (35376) - http://www.bohemiancoding.com/sketch -->
    <title>Group</title>
    <desc>Created with Sketch.</desc>
    <defs></defs>
    <g id="Landing-page" stroke="none" stroke-width="1" fill="none" fill-rule="evenodd">
        <g id="Desktop" transform="translate(-461.000000, -58.000000)" fill="#374343">
            <g id="Group" transform="translate(461.000000, 58.000000)">
                <rect id="Rectangle-54-Copy-7" x="0.961165049" y="83.7573964" width="14.3453128" height="25.0424295" rx="1"></rect>
                <rect id="Rectangle-54-Copy-12" x="89.5825243" y="83.7573964" width="14.3453128" height="25.0424295" rx="1"></rect>
                <path d="M14.4951456,8.63263657 C14.4951456,8.08035599 14.9385284,7.63264413 15.4920026,7.63264413 L35.6947524,7.63264413 C36.2453013,7.63264413 36.6916094,8.08325963 36.6916094,8.63263657 L36.6916094,18.1275977 C36.6916094,18.6798782 36.2482266,19.1275901 35.6947524,19.1275901 L15.4920026,19.1275901 C14.9414537,19.1275901 14.4951456,18.6769746 14.4951456,18.1275977 L14.4951456,8.63263657 Z M40.084082,1.00145132 C40.084082,0.44836503 40.5274648,0 41.0809389,0 L61.2836888,0 C61.8342377,0 62.2805457,0.45395348 62.2805457,1.00145132 L62.2805457,18.1261388 C62.2805457,18.6792251 61.837163,19.1275901 61.2836888,19.1275901 L41.0809389,19.1275901 C40.53039,19.1275901 40.084082,18.6736366 40.084082,18.1261388 L40.084082,1.00145132 Z M66.2545851,6.51835104 C66.2545851,5.96563718 66.6979679,5.51757407 67.251442,5.51757407 L87.4541919,5.51757407 C88.0047408,5.51757407 88.4510488,5.97040366 88.4510488,6.51835104 L88.4510488,18.1268131 C88.4510488,18.679527 88.0076661,19.1275901 87.4541919,19.1275901 L67.251442,19.1275901 C66.7008931,19.1275901 66.2545851,18.6747605 66.2545851,18.1268131 L66.2545851,6.51835104 Z" id="Combined-Shape"></path>
                <path d="M13.3708533,69.095829 L13.3708533,64.2038692 L3.0088834,64.2038692 C2.45169249,64.2038692 2,63.7513532 2,63.2053165 L2,57.781843 C2,56.6802392 2.89008853,55.6681091 3.97761873,55.5225854 L13.3708533,54.2656656 L13.3708533,47.0179389 L13.370495,24.8455996 C13.370495,23.7418194 14.2605047,22.7824138 15.3573871,22.7064562 C15.3573871,22.7064562 32.3051331,21.408284 51.2397711,21.408284 C70.1744092,21.408284 87.1221552,22.7064562 87.1221552,22.7064562 C88.2194854,22.7840922 89.1090473,23.7359501 89.1090473,24.8455996 L89.1090473,46.7952869 L89.1479817,46.7952869 L89.1479817,54.2562433 L98.8673532,55.5268936 C99.9670719,55.670664 100.85857,56.6879426 100.85857,57.781843 L100.85857,63.2053165 C100.85857,63.7568019 100.417028,64.2038692 99.8507878,64.2038692 L89.1479817,64.2038692 L89.1479817,69.095829 L99.0002618,69.095829 C100.104687,69.095829 101,69.9980664 101,71.0962033 L101,77.1552719 C101,77.7101239 100.558659,78.1599203 100.004199,78.1599203 L3.00551341,78.1599203 C2.45554755,78.1599203 2.00971214,77.7104306 2.00971214,77.1552719 L2.00971214,71.0962033 C2.00971214,69.9914271 2.89572617,69.095829 4.00945036,69.095829 L13.3708533,69.095829 Z M21.234772,27.1020637 C21.234772,26.0011669 22.1296515,25.0459277 23.231412,24.9727636 C23.231412,24.9727636 36.2372716,24 51.2397711,24 C66.2422707,24 79.2481303,24.9727636 79.2481303,24.9727636 C80.3508441,25.0478468 81.2447703,26.0071032 81.2447703,27.1020637 L81.2447703,43.7351036 L21.234772,43.7351036 L21.234772,27.1020637 Z M29.5785452,52.8233229 C29.5785452,51.8381909 30.3685606,51.0395836 31.3584012,51.0395836 C32.3413885,51.0395836 33.1382571,51.8267555 33.1382571,52.8233229 L33.1382571,64.2907259 C33.1382571,65.2758579 32.3482417,66.0744652 31.3584012,66.0744652 C30.3754138,66.0744652 29.5785452,65.2872933 29.5785452,64.2907259 L29.5785452,52.8233229 Z M36.1677992,52.8233229 C36.1677992,51.8381909 36.9578147,51.0395836 37.9476552,51.0395836 C38.9306425,51.0395836 39.7275112,51.8267555 39.7275112,52.8233229 L39.7275112,64.2907259 C39.7275112,65.2758579 38.9374957,66.0744652 37.9476552,66.0744652 C36.9646679,66.0744652 36.1677992,65.2872933 36.1677992,64.2907259 L36.1677992,52.8233229 Z M42.8327918,52.8233229 C42.8327918,51.8381909 43.6228073,51.0395836 44.6126478,51.0395836 C45.5956351,51.0395836 46.3925038,51.8267555 46.3925038,52.8233229 L46.3925038,64.2907259 C46.3925038,65.2758579 45.6024883,66.0744652 44.6126478,66.0744652 C43.6296605,66.0744652 42.8327918,65.2872933 42.8327918,64.2907259 L42.8327918,52.8233229 Z M49.4977844,52.8233229 C49.4977844,51.8381909 50.2877999,51.0395836 51.2776404,51.0395836 C52.2606277,51.0395836 53.0574964,51.8267555 53.0574964,52.8233229 L53.0574964,64.2907259 C53.0574964,65.2758579 52.2674809,66.0744652 51.2776404,66.0744652 C50.2946531,66.0744652 49.4977844,65.2872933 49.4977844,64.2907259 L49.4977844,52.8233229 Z M56.0870385,52.8233229 C56.0870385,51.8381909 56.8770539,51.0395836 57.8668945,51.0395836 C58.8498818,51.0395836 59.6467504,51.8267555 59.6467504,52.8233229 L59.6467504,64.2907259 C59.6467504,65.2758579 58.856735,66.0744652 57.8668945,66.0744652 C56.8839071,66.0744652 56.0870385,65.2872933 56.0870385,64.2907259 L56.0870385,52.8233229 Z M62.7520311,52.8233229 C62.7520311,51.8381909 63.5420465,51.0395836 64.5318871,51.0395836 C65.5148744,51.0395836 66.311743,51.8267555 66.311743,52.8233229 L66.311743,64.2907259 C66.311743,65.2758579 65.5217276,66.0744652 64.5318871,66.0744652 C63.5488998,66.0744652 62.7520311,65.2872933 62.7520311,64.2907259 L62.7520311,52.8233229 Z M69.4170237,52.8233229 C69.4170237,51.8381909 70.2070391,51.0395836 71.1968797,51.0395836 C72.179867,51.0395836 72.9767356,51.8267555 72.9767356,52.8233229 L72.9767356,64.2907259 C72.9767356,65.2758579 72.1867202,66.0744652 71.1968797,66.0744652 C70.2138924,66.0744652 69.4170237,65.2872933 69.4170237,64.2907259 L69.4170237,52.8233229 Z M23.1140613,60.3880037 C25.4623889,60.3880037 27.3660846,58.5815312 27.3660846,56.3531344 C27.3660846,54.1247376 25.4623889,52.318265 23.1140613,52.318265 C20.7657338,52.318265 18.8620381,54.1247376 18.8620381,56.3531344 C18.8620381,58.5815312 20.7657338,60.3880037 23.1140613,60.3880037 Z M79.3774402,60.3880037 C81.7257678,60.3880037 83.6294635,58.5815312 83.6294635,56.3531344 C83.6294635,54.1247376 81.7257678,52.318265 79.3774402,52.318265 C77.0291127,52.318265 75.125417,54.1247376 75.125417,56.3531344 C75.125417,58.5815312 77.0291127,60.3880037 79.3774402,60.3880037 Z" id="Combined-Shape"></path>
            </g>
        </g>
    </g>
</svg>