<?xml version="1.0" encoding="UTF-8" standalone="no"?>
<svg width="99px" height="107px" viewBox="0 0 99 107" version="1.1" xmlns="http://www.w3.org/2000/svg" xmlns:xlink="http://www.w3.org/1999/xlink">
    <!-- Generator: Sketch 41.1 (35376) - http://www.bohemiancoding.com/sketch -->
    <title>Group</title>
    <desc>Created with Sketch.</desc>
    <defs></defs>
    <g id="Landing-page" stroke="none" stroke-width="1" fill="none" fill-rule="evenodd">
        <g id="Desktop" transform="translate(-463.000000, -58.000000)" fill="#374343">
            <g id="Group" transform="translate(463.000000, 58.000000)">
                <rect id="Rectangle-54-Copy-7" x="0.961165049" y="81.7573964" width="14.3453128" height="25.0424295" rx="1"></rect>
                <rect id="Rectangle-54-Copy-12" x="84.5825243" y="81.7573964" width="14.3453128" height="25.0424295" rx="1"></rect>
                <path d="M12.4951456,8.63263657 C12.4951456,8.08035599 12.9385284,7.63264413 13.4920026,7.63264413 L33.6947524,7.63264413 C34.2453013,7.63264413 34.6916094,8.08325963 34.6916094,8.63263657 L34.6916094,18.1275977 C34.6916094,18.6798782 34.2482266,19.1275901 33.6947524,19.1275901 L13.4920026,19.1275901 C12.9414537,19.1275901 12.4951456,18.6769746 12.4951456,18.1275977 L12.4951456,8.63263657 Z M38.084082,1.00145132 C38.084082,0.44836503 38.5274648,0 39.0809389,0 L59.2836888,0 C59.8342377,0 60.2805457,0.45395348 60.2805457,1.00145132 L60.2805457,18.1261388 C60.2805457,18.6792251 59.837163,19.1275901 59.2836888,19.1275901 L39.0809389,19.1275901 C38.53039,19.1275901 38.084082,18.6736366 38.084082,18.1261388 L38.084082,1.00145132 Z M64.2545851,6.51835104 C64.2545851,5.96563718 64.6979679,5.51757407 65.251442,5.51757407 L85.4541919,5.51757407 C86.0047408,5.51757407 86.4510488,5.97040366 86.4510488,6.51835104 L86.4510488,18.1268131 C86.4510488,18.679527 86.0076661,19.1275901 85.4541919,19.1275901 L65.251442,19.1275901 C64.7008931,19.1275901 64.2545851,18.6747605 64.2545851,18.1268131 L64.2545851,6.51835104 Z" id="Combined-Shape"></path>
                <path d="M11.3708533,69.095829 L11.3708533,64.2038692 L1.0088834,64.2038692 C0.451692485,64.2038692 0,63.7513532 0,63.2053165 L0,57.781843 C0,56.6802392 0.890088533,55.6681091 1.97761873,55.5225854 L11.3708533,54.2656656 L11.3708533,47.0179389 L11.370495,24.8455996 C11.370495,23.7418194 12.2605047,22.7824138 13.3573871,22.7064562 C13.3573871,22.7064562 30.3051331,21.408284 49.2397711,21.408284 C68.1744092,21.408284 85.1221552,22.7064562 85.1221552,22.7064562 C86.2194854,22.7840922 87.1090473,23.7359501 87.1090473,24.8455996 L87.1090473,46.7952869 L87.1479817,46.7952869 L87.1479817,54.2562433 L96.8673532,55.5268936 C97.9670719,55.670664 98.8585701,56.6879426 98.8585701,57.781843 L98.8585701,63.2053165 C98.8585701,63.7568019 98.4170284,64.2038692 97.8507878,64.2038692 L87.1479817,64.2038692 L87.1479817,69.095829 L97.0002618,69.095829 C98.1046867,69.095829 99,69.9980664 99,71.0962033 L99,77.1552719 C99,77.7101239 98.558659,78.1599203 98.0041987,78.1599203 L1.00551341,78.1599203 C0.455547552,78.1599203 0.00971213713,77.7104306 0.00971213713,77.1552719 L0.00971213713,71.0962033 C0.00971213713,69.9914271 0.895726166,69.095829 2.00945036,69.095829 L11.3708533,69.095829 Z M19.234772,27.1020637 C19.234772,26.0011669 20.1296515,25.0459277 21.231412,24.9727636 C21.231412,24.9727636 34.2372716,24 49.2397711,24 C64.2422707,24 77.2481303,24.9727636 77.2481303,24.9727636 C78.3508441,25.0478468 79.2447703,26.0071032 79.2447703,27.1020637 L79.2447703,43.7351036 L19.234772,43.7351036 L19.234772,27.1020637 Z M27.5785452,52.8233229 C27.5785452,51.8381909 28.3685606,51.0395836 29.3584012,51.0395836 C30.3413885,51.0395836 31.1382571,51.8267555 31.1382571,52.8233229 L31.1382571,64.2907259 C31.1382571,65.2758579 30.3482417,66.0744652 29.3584012,66.0744652 C28.3754138,66.0744652 27.5785452,65.2872933 27.5785452,64.2907259 L27.5785452,52.8233229 Z M34.1677992,52.8233229 C34.1677992,51.8381909 34.9578147,51.0395836 35.9476552,51.0395836 C36.9306425,51.0395836 37.7275112,51.8267555 37.7275112,52.8233229 L37.7275112,64.2907259 C37.7275112,65.2758579 36.9374957,66.0744652 35.9476552,66.0744652 C34.9646679,66.0744652 34.1677992,65.2872933 34.1677992,64.2907259 L34.1677992,52.8233229 Z M40.8327918,52.8233229 C40.8327918,51.8381909 41.6228073,51.0395836 42.6126478,51.0395836 C43.5956351,51.0395836 44.3925038,51.8267555 44.3925038,52.8233229 L44.3925038,64.2907259 C44.3925038,65.2758579 43.6024883,66.0744652 42.6126478,66.0744652 C41.6296605,66.0744652 40.8327918,65.2872933 40.8327918,64.2907259 L40.8327918,52.8233229 Z M47.4977844,52.8233229 C47.4977844,51.8381909 48.2877999,51.0395836 49.2776404,51.0395836 C50.2606277,51.0395836 51.0574964,51.8267555 51.0574964,52.8233229 L51.0574964,64.2907259 C51.0574964,65.2758579 50.2674809,66.0744652 49.2776404,66.0744652 C48.2946531,66.0744652 47.4977844,65.2872933 47.4977844,64.2907259 L47.4977844,52.8233229 Z M54.0870385,52.8233229 C54.0870385,51.8381909 54.8770539,51.0395836 55.8668945,51.0395836 C56.8498818,51.0395836 57.6467504,51.8267555 57.6467504,52.8233229 L57.6467504,64.2907259 C57.6467504,65.2758579 56.856735,66.0744652 55.8668945,66.0744652 C54.8839071,66.0744652 54.0870385,65.2872933 54.0870385,64.2907259 L54.0870385,52.8233229 Z M60.7520311,52.8233229 C60.7520311,51.8381909 61.5420465,51.0395836 62.5318871,51.0395836 C63.5148744,51.0395836 64.311743,51.8267555 64.311743,52.8233229 L64.311743,64.2907259 C64.311743,65.2758579 63.5217276,66.0744652 62.5318871,66.0744652 C61.5488998,66.0744652 60.7520311,65.2872933 60.7520311,64.2907259 L60.7520311,52.8233229 Z M67.4170237,52.8233229 C67.4170237,51.8381909 68.2070391,51.0395836 69.1968797,51.0395836 C70.179867,51.0395836 70.9767356,51.8267555 70.9767356,52.8233229 L70.9767356,64.2907259 C70.9767356,65.2758579 70.1867202,66.0744652 69.1968797,66.0744652 C68.2138924,66.0744652 67.4170237,65.2872933 67.4170237,64.2907259 L67.4170237,52.8233229 Z M21.1140613,60.3880037 C23.4623889,60.3880037 25.3660846,58.5815312 25.3660846,56.3531344 C25.3660846,54.1247376 23.4623889,52.318265 21.1140613,52.318265 C18.7657338,52.318265 16.8620381,54.1247376 16.8620381,56.3531344 C16.8620381,58.5815312 18.7657338,60.3880037 21.1140613,60.3880037 Z M77.3774402,60.3880037 C79.7257678,60.3880037 81.6294635,58.5815312 81.6294635,56.3531344 C81.6294635,54.1247376 79.7257678,52.318265 77.3774402,52.318265 C75.0291127,52.318265 73.125417,54.1247376 73.125417,56.3531344 C73.125417,58.5815312 75.0291127,60.3880037 77.3774402,60.3880037 Z" id="Combined-Shape"></path>
            </g>
        </g>
    </g>
</svg>