<?xml version="1.0" encoding="UTF-8" standalone="no"?>
<svg width="105px" height="111px" viewBox="0 0 105 111" version="1.1" xmlns="http://www.w3.org/2000/svg" xmlns:xlink="http://www.w3.org/1999/xlink">
    <!-- Generator: Sketch 41.1 (35376) - http://www.bohemiancoding.com/sketch -->
    <title>Group</title>
    <desc>Created with Sketch.</desc>
    <defs></defs>
    <g id="Pics-+-new-site" stroke="none" stroke-width="1" fill="none" fill-rule="evenodd">
        <g id="Group" fill="#C38752">
            <rect id="Rectangle-54-Copy-7" x="0.138170276" y="85.2020194" width="14.5991145" height="25.474354" rx="1"></rect>
            <rect id="Rectangle-54-Copy-12" x="90.3274459" y="85.2020194" width="14.5991145" height="25.474354" rx="1"></rect>
            <path d="M13.9115982,8.76124602 C13.9115982,8.21064226 14.3628255,7.76428973 14.9113736,7.76428973 L35.5009932,7.76428973 C36.0531539,7.76428973 36.5007686,8.20839868 36.5007686,8.76124602 L36.5007686,18.4605409 C36.5007686,19.0111446 36.0495414,19.4574972 35.5009932,19.4574972 L14.9113736,19.4574972 C14.3592129,19.4574972 13.9115982,19.0133882 13.9115982,18.4605409 L13.9115982,8.76124602 Z M39.9532619,0.991650399 C39.9532619,0.443977007 40.4044891,0 40.9530373,0 L61.5426569,0 C62.0948176,0 62.5424323,0.442955348 62.5424323,0.991650399 L62.5424323,18.4658468 C62.5424323,19.0135201 62.0912051,19.4574972 61.5426569,19.4574972 L40.9530373,19.4574972 C40.4008766,19.4574972 39.9532619,19.0145418 39.9532619,18.4658468 L39.9532619,0.991650399 Z M66.5867816,6.60842039 C66.5867816,6.05852105 67.0380088,5.61273956 67.586557,5.61273956 L88.1761766,5.61273956 C88.7283373,5.61273956 89.175952,6.05769896 89.175952,6.60842039 L89.175952,18.4618163 C89.175952,19.0117157 88.7247248,19.4574972 88.1761766,19.4574972 L67.586557,19.4574972 C67.0343963,19.4574972 66.5867816,19.0125378 66.5867816,18.4618163 L66.5867816,6.60842039 Z" id="Combined-Shape"></path>
            <path d="M12.7674145,70.2875736 L12.7674145,65.3112386 L2.19740988,65.3112386 C1.64400661,65.3112386 1.19538462,64.8629725 1.19538462,64.3123322 L1.19538462,58.7567818 C1.19538462,57.6481434 2.07784132,56.6313834 3.17522647,56.4846052 L12.7674145,55.2016239 L12.7674145,47.8288905 L12.7670499,25.2323832 C12.7670499,24.132621 13.6593337,23.1763117 14.7694181,23.0994254 C14.7694181,23.0994254 32.0366854,21.7775278 51.3063209,21.7775278 C70.5759565,21.7775278 87.8628114,23.1007553 87.8628114,23.1007553 C88.9578709,23.1782586 89.845592,24.1453408 89.845592,25.2323832 L89.845592,47.6023982 L89.8852152,47.6023982 L89.8852152,55.1920391 L99.8264412,56.4911255 C100.918059,56.6337745 101.802991,57.6494973 101.802991,58.7567818 L101.802991,64.3123322 C101.802991,64.864013 101.353637,65.3112386 100.802399,65.3112386 L89.8852152,65.3112386 L89.8852152,70.2875736 L99.9459081,70.2875736 C101.051038,70.2875736 101.946923,71.1884549 101.946923,72.2882687 L101.946923,78.5037002 C101.946923,79.0583595 101.497774,79.5079997 100.949848,79.5079997 L2.20234412,79.5079997 C1.65167451,79.5079997 1.20526858,79.0632794 1.20526858,78.5037002 L1.20526858,72.2882687 C1.20526858,71.1833153 2.10695824,70.2875736 3.20628355,70.2875736 L12.7674145,70.2875736 Z M20.7704641,27.5337001 C20.7704641,26.4335938 21.6573347,25.4795375 22.7677078,25.405738 C22.7677078,25.405738 36.0383925,24.413945 51.3063209,24.413945 C66.5742494,24.413945 79.8449341,25.405738 79.8449341,25.405738 C80.9479813,25.4808727 81.8421778,26.4302522 81.8421778,27.5337001 L81.8421778,44.4894338 L20.7704641,44.4894338 L20.7704641,27.5337001 Z M29.2618579,53.7344041 C29.2618579,52.7322808 30.0658506,51.9198993 31.0732036,51.9198993 C32.0735823,51.9198993 32.8845494,52.7313835 32.8845494,53.7344041 L32.8845494,65.3995934 C32.8845494,66.4017167 32.0805567,67.2140982 31.0732036,67.2140982 C30.072825,67.2140982 29.2618579,66.402614 29.2618579,65.3995934 L29.2618579,53.7344041 Z M35.9676911,53.7344041 C35.9676911,52.7322808 36.7716837,51.9198993 37.7790368,51.9198993 C38.7794154,51.9198993 39.5903825,52.7313835 39.5903825,53.7344041 L39.5903825,65.3995934 C39.5903825,66.4017167 38.7863899,67.2140982 37.7790368,67.2140982 C36.7786582,67.2140982 35.9676911,66.402614 35.9676911,65.3995934 L35.9676911,53.7344041 Z M42.7506028,53.7344041 C42.7506028,52.7322808 43.5545954,51.9198993 44.5619485,51.9198993 C45.5623271,51.9198993 46.3732942,52.7313835 46.3732942,53.7344041 L46.3732942,65.3995934 C46.3732942,66.4017167 45.5693016,67.2140982 44.5619485,67.2140982 C43.5615699,67.2140982 42.7506028,66.402614 42.7506028,65.3995934 L42.7506028,53.7344041 Z M49.5335145,53.7344041 C49.5335145,52.7322808 50.3375071,51.9198993 51.3448602,51.9198993 C52.3452388,51.9198993 53.1562059,52.7313835 53.1562059,53.7344041 L53.1562059,65.3995934 C53.1562059,66.4017167 52.3522133,67.2140982 51.3448602,67.2140982 C50.3444816,67.2140982 49.5335145,66.402614 49.5335145,65.3995934 L49.5335145,53.7344041 Z M56.2393476,53.7344041 C56.2393476,52.7322808 57.0433403,51.9198993 58.0506934,51.9198993 C59.051072,51.9198993 59.8620391,52.7313835 59.8620391,53.7344041 L59.8620391,65.3995934 C59.8620391,66.4017167 59.0580464,67.2140982 58.0506934,67.2140982 C57.0503147,67.2140982 56.2393476,66.402614 56.2393476,65.3995934 L56.2393476,53.7344041 Z M63.0222593,53.7344041 C63.0222593,52.7322808 63.826252,51.9198993 64.8336051,51.9198993 C65.8339837,51.9198993 66.6449508,52.7313835 66.6449508,53.7344041 L66.6449508,65.3995934 C66.6449508,66.4017167 65.8409582,67.2140982 64.8336051,67.2140982 C63.8332264,67.2140982 63.0222593,66.402614 63.0222593,65.3995934 L63.0222593,53.7344041 Z M69.805171,53.7344041 C69.805171,52.7322808 70.6091637,51.9198993 71.6165168,51.9198993 C72.6168954,51.9198993 73.4278625,52.7313835 73.4278625,53.7344041 L73.4278625,65.3995934 C73.4278625,66.4017167 72.6238699,67.2140982 71.6165168,67.2140982 C70.6161381,67.2140982 69.805171,66.402614 69.805171,65.3995934 L69.805171,53.7344041 Z M22.6830024,61.4295582 C25.0728774,61.4295582 27.0102538,59.5919282 27.0102538,57.3250967 C27.0102538,55.0582652 25.0728774,53.2206351 22.6830024,53.2206351 C20.2931275,53.2206351 18.3557511,55.0582652 18.3557511,57.3250967 C18.3557511,59.5919282 20.2931275,61.4295582 22.6830024,61.4295582 Z M79.9418103,61.4295582 C82.3316853,61.4295582 84.2690617,59.5919282 84.2690617,57.3250967 C84.2690617,55.0582652 82.3316853,53.2206351 79.9418103,53.2206351 C77.5519354,53.2206351 75.614559,55.0582652 75.614559,57.3250967 C75.614559,59.5919282 77.5519354,61.4295582 79.9418103,61.4295582 Z" id="Combined-Shape"></path>
        </g>
    </g>
</svg>