<?xml version="1.0" encoding="UTF-8" standalone="no"?>
<svg width="148px" height="82px" viewBox="0 0 148 82" version="1.1" xmlns="http://www.w3.org/2000/svg" xmlns:xlink="http://www.w3.org/1999/xlink">
    <!-- Generator: Sketch 41.1 (35376) - http://www.bohemiancoding.com/sketch -->
    <title>Group 29 Copy 5</title>
    <desc>Created with Sketch.</desc>
    <defs></defs>
    <g id="Landing-page" stroke="none" stroke-width="1" fill="none" fill-rule="evenodd">
        <g id="Desktop" transform="translate(-438.000000, -76.000000)" fill="#374343">
            <g id="Group-29-Copy-5" transform="translate(439.000000, 77.000000)">
                <g id="Group-21-Copy-7" transform="translate(13.527817, 0.000000)">
                    <g id="Group-14-Copy-15" transform="translate(0.000000, 20.476157)">
                        <g id="Group-13-Copy-3" transform="translate(66.162225, 30.000000) scale(-1, 1) translate(-66.162225, -30.000000) translate(0.162225, 0.000000)">
                            <path d="M42.6470955,17.588266 L52.0471159,1.71938846 C52.6096122,0.769796435 53.9607306,0 55.0651135,0 L129.566869,0 C130.671167,0 131.566377,0.892552345 131.566377,2.00737319 L131.566377,20.1236395 L131.566377,38.7308428 C131.566377,39.2839812 131.126111,39.7323885 130.566221,39.7323885 L128.976028,39.7323885 C128.423657,39.7323885 127.769883,39.3365592 127.51624,38.8491577 L121.991696,28.2331659 L104.808563,28.2331659 L97.0198309,38.9237855 C96.6944723,39.3703646 95.9798836,39.7323885 95.4335751,39.7323885 L91.7716088,39.7323885 L41.1257316,39.7323885 L41.1198359,39.8182036 L34.3415056,39.8182036 C33.7886144,39.8182036 33.0635006,39.4590409 32.7269284,39.0224891 L24.4150046,28.2414883 L6.27576652,28.2414883 L5.17223676,38.8311793 C5.1154311,39.3762978 4.61950726,39.8182036 4.06783445,39.8182036 L1.00154656,39.8182036 C0.448407668,39.8182036 2.55795385e-13,39.3708281 2.55795385e-13,38.8166579 L2.55795385e-13,22.158999 C2.55795385e-13,21.0585982 0.890985987,20.1091912 2.00029743,20.037781 L42.6586239,17.4204641 L42.6470955,17.588266 Z M56.5077163,5.73497012 L74.6312198,5.73497012 L74.6312198,19.2079399 L48.8137761,19.2079399 L56.5077163,5.73497012 Z M80.8718602,5.73497012 L100.61964,5.73497012 L100.61964,19.2079399 L80.8718602,19.2079399 L80.8718602,5.73497012 Z M106.86028,5.73497012 L126.60806,5.73497012 L126.60806,19.2079399 L106.86028,19.2079399 L106.86028,5.73497012 Z" id="Combined-Shape" stroke="#374343" stroke-width="2"></path>
                            <path d="M17.8276768,59.8657397 C24.8149692,59.8657397 30.479289,54.1797621 30.479289,47.1657533 C30.479289,40.1517444 24.8149692,34.4657668 17.8276768,34.4657668 C10.8403843,34.4657668 5.17606457,40.1517444 5.17606457,47.1657533 C5.17606457,54.1797621 10.8403843,59.8657397 17.8276768,59.8657397 Z M17.8276768,51.0919944 C19.9896263,51.0919944 21.7422326,49.3341564 21.7422326,47.1657533 C21.7422326,44.9973501 19.9896263,43.2395121 17.8276768,43.2395121 C15.6657273,43.2395121 13.9131209,44.9973501 13.9131209,47.1657533 C13.9131209,49.3341564 15.6657273,51.0919944 17.8276768,51.0919944 Z" id="Combined-Shape-Copy-46"></path>
                            <path d="M113.067265,59.8657397 C120.054557,59.8657397 125.718877,54.1797621 125.718877,47.1657533 C125.718877,40.1517444 120.054557,34.4657668 113.067265,34.4657668 C106.079972,34.4657668 100.415653,40.1517444 100.415653,47.1657533 C100.415653,54.1797621 106.079972,59.8657397 113.067265,59.8657397 Z M113.067265,51.0919944 C115.229214,51.0919944 116.981821,49.3341564 116.981821,47.1657533 C116.981821,44.9973501 115.229214,43.2395121 113.067265,43.2395121 C110.905315,43.2395121 109.152709,44.9973501 109.152709,47.1657533 C109.152709,49.3341564 110.905315,51.0919944 113.067265,51.0919944 Z" id="Combined-Shape-Copy-53"></path>
                            <path d="M38.5867179,19.4796476 L45.7111002,19.1200758 L45.7111002,24.6041006 C45.7111002,24.6041006 41.2027646,26.8980185 39.5157083,26.8576723 C37.8286521,26.8173262 38.6057515,24.4341754 38.6057515,24.4341754 L38.5867179,19.4796476 Z" id="Rectangle-42-Copy-4" transform="translate(42.069088, 22.989137) rotate(-3.000000) translate(-42.069088, -22.989137) "></path>
                        </g>
                    </g>
                    <rect id="Rectangle-47-Copy-3" stroke="#374343" x="6.81418807" y="5.18968382" width="21.7394712" height="11.0121646" rx="1"></rect>
                    <rect id="Rectangle-47-Copy-4" stroke="#374343" x="33.8776114" y="0" width="11.8340329" height="16.1943597" rx="1"></rect>
                    <rect id="Rectangle-47-Copy-5" stroke="#374343" x="50.8846807" y="4.5965771" width="22.3462881" height="11.5303841" rx="1"></rect>
                </g>
                <rect id="Rectangle-41-Copy-11" stroke="#374343" x="0" y="33.6727814" width="8.41036533" height="20.7672527" rx="1"></rect>
            </g>
        </g>
    </g>
</svg>